<svg width="30" height="30" viewBox="0 0 30 30" fill="none" xmlns="http://www.w3.org/2000/svg">
<path d="M18.5789 5.69692C19.3362 4.93999 19.8951 4.11093 20.2557 3.20941C20.6043 2.3079 20.7786 1.49085 20.7786 0.757316C20.7786 0.709578 20.7756 0.648801 20.7695 0.577003C20.7632 0.505205 20.7605 0.445464 20.7605 0.396689C20.7485 0.360627 20.7335 0.294503 20.7155 0.19799C20.6975 0.102187 20.6825 0.0360627 20.6704 0C18.5549 0.49282 17.0526 1.38233 16.1632 2.66847C15.2617 3.96635 14.7929 5.51093 14.7568 7.3019C15.5618 7.22945 16.1869 7.12797 16.632 6.99572C17.2811 6.77875 17.9298 6.34632 18.5789 5.69692Z" fill="white"/>
<path d="M24.7088 19.6336C23.8795 18.4443 23.4648 17.104 23.4648 15.6129C23.4648 14.2549 23.8551 13.0112 24.6367 11.8809C25.0574 11.2683 25.7426 10.5591 26.6921 9.75335C26.0671 8.98441 25.442 8.38373 24.817 7.95032C23.6871 7.16998 22.4069 6.77837 20.9769 6.77837C20.1234 6.77837 19.0837 6.98339 17.8576 7.39176C16.6796 7.80078 15.8202 8.00444 15.2796 8.00444C14.871 8.00444 14.0416 7.82413 12.7914 7.46356C11.5294 7.10293 10.4659 6.92262 9.60041 6.92262C7.53294 6.92262 5.8261 7.78807 4.48016 9.51929C3.12189 11.2743 2.44275 13.5216 2.44275 16.2619C2.44275 19.1705 3.3262 22.1932 5.09322 25.3308C6.88392 28.4437 8.6929 30 10.52 30C11.133 30 11.926 29.7957 12.8996 29.3873C13.8733 28.9906 14.7263 28.7924 15.4596 28.7924C16.2409 28.7924 17.1481 28.9847 18.1821 29.369C19.2756 29.7536 20.1171 29.9456 20.7061 29.9456C22.2443 29.9456 23.7889 28.7679 25.3395 26.4123C26.3492 24.9101 27.0885 23.4073 27.5573 21.9051C26.4875 21.5809 25.5382 20.8236 24.7088 19.6336Z" fill="white"/>
</svg>
