<svg width="47" height="50" viewBox="0 0 47 50" fill="none" xmlns="http://www.w3.org/2000/svg">
<path d="M17.1933 17.3882C22.9698 17.3882 27.6526 15.9345 27.6526 14.1414C27.6526 12.3483 22.9698 10.8947 17.1933 10.8947C11.4168 10.8947 6.73407 12.3483 6.73407 14.1414C6.73407 15.9345 11.4168 17.3882 17.1933 17.3882Z" fill="white"/>
<path d="M17.1217 17.4242C20.9244 17.4242 24.3688 16.64 26.8639 15.3706C29.3569 14.102 30.9122 12.3431 30.9122 10.3896C30.9122 8.43615 29.3569 6.67718 26.8639 5.40869C24.3688 4.13915 20.9244 3.35498 17.1217 3.35498C13.319 3.35498 9.87465 4.13915 7.37955 5.40869C4.8865 6.67718 3.33124 8.43615 3.33124 10.3896C3.33124 12.3431 4.8865 14.102 7.37955 15.3706C9.87465 16.64 13.319 17.4242 17.1217 17.4242Z" stroke="white"/>
<path d="M3.33124 10.7143C3.36715 18.2101 4.58772 34.2383 9.4719 37.6595C11.1838 39.1682 16.0296 41.43 21.7183 38.4079C27.407 35.3858 30.1701 18.7702 30.8764 10.8586" stroke="white"/>
<path d="M29.4436 21.1761C30.4345 19.5527 33.7777 17.5325 38.0044 20.5267C43.6474 24.5243 29.4794 31.2049 26.6138 31.5657" stroke="white"/>
<path d="M30.3749 15.7287C31.7838 15.2236 35.6475 15.0144 38.9715 16.9192C42.2956 18.8239 41.8013 22.619 40.2968 25.6493C39.5088 27.2366 37.7752 29.264 35.9985 30.4473C34.2219 31.6306 30.0286 33.658 28.1541 34.5238C27.3422 35.0649 25.4748 36.0389 24.5005 35.606" stroke="white"/>
<path d="M5.21013 46.6852C4.89378 46.6852 4.62327 46.5974 4.39861 46.422C4.17395 46.2465 4.00202 46.0064 3.88281 45.7016C3.76819 45.3969 3.71088 45.0505 3.71088 44.6627C3.71088 44.2286 3.81174 43.8176 4.01348 43.4298C4.21521 43.0373 4.47884 42.7233 4.80437 42.4878C5.13448 42.2477 5.47606 42.1276 5.82909 42.1276C6.12711 42.1276 6.35636 42.1945 6.51683 42.3285C6.6773 42.4624 6.75753 42.6194 6.75753 42.7995C6.75753 42.9057 6.72544 43.0026 6.66125 43.0904C6.60165 43.1781 6.51453 43.2451 6.39991 43.2912C6.38616 43.2635 6.37928 43.2197 6.37928 43.1596C6.37928 43.1042 6.38616 43.0488 6.39991 42.9934C6.40908 42.9195 6.41367 42.8664 6.41367 42.8341C6.41367 42.7879 6.40679 42.7487 6.39303 42.7163C6.32885 42.5547 6.15462 42.4739 5.87036 42.4739C5.79241 42.4739 5.70072 42.4808 5.59526 42.4947C5.35227 42.527 5.11156 42.6494 4.87314 42.8618C4.63473 43.0696 4.43987 43.3305 4.28857 43.6445C4.13727 43.9585 4.06162 44.2794 4.06162 44.6072C4.06162 44.8935 4.10747 45.166 4.19917 45.4246C4.29545 45.6785 4.433 45.884 4.61181 46.041C4.79062 46.198 5.00381 46.2765 5.2514 46.2765C5.57234 46.2765 5.83826 46.2373 6.04917 46.1588C6.26466 46.0803 6.47556 45.9602 6.68188 45.7986C6.70481 45.7801 6.73002 45.7709 6.75753 45.7709C6.80797 45.7709 6.84235 45.8009 6.86069 45.8609C6.88362 45.9718 6.81026 46.0918 6.64062 46.2211C6.47098 46.3504 6.2509 46.4612 5.98039 46.5536C5.70989 46.6413 5.45313 46.6852 5.21013 46.6852ZM8.84022 46.6159C8.56971 46.6159 8.32442 46.5559 8.10434 46.4358C7.88885 46.3111 7.71921 46.1403 7.59535 45.9233C7.47621 45.7016 7.41661 45.45 7.41661 45.1683C7.41661 44.7065 7.58396 44.3625 7.91865 44.1363C8.25794 43.91 8.67287 43.7969 9.16338 43.7969C9.38811 43.7969 9.59672 43.8523 9.78929 43.9631C9.98644 44.0739 10.1446 44.2332 10.2638 44.441C10.383 44.6488 10.4426 44.8889 10.4426 45.1614C10.4426 45.4569 10.367 45.7155 10.2157 45.9371C10.0644 46.1541 9.86494 46.3227 9.61735 46.4427C9.37436 46.5582 9.11531 46.6159 8.84022 46.6159ZM8.76457 46.2211C9.19096 46.2211 9.51419 46.1241 9.73427 45.9302C9.95434 45.7363 10.0644 45.4523 10.0644 45.0782C10.0644 44.8243 9.97727 44.6049 9.80304 44.4202C9.6334 44.2355 9.39499 44.1432 9.0878 44.1432C8.88148 44.1432 8.67287 44.1824 8.46196 44.2609C8.25106 44.3394 8.07683 44.4572 7.93929 44.6142C7.80174 44.7712 7.73297 44.9605 7.73297 45.1821C7.73297 45.3668 7.77882 45.54 7.87051 45.7016C7.96221 45.8586 8.086 45.9856 8.24189 46.0826C8.40236 46.1749 8.57659 46.2211 8.76457 46.2211ZM14.4283 41.7328C14.6346 41.7328 14.8317 41.7859 15.0197 41.8921C15.2077 41.9937 15.359 42.1253 15.4736 42.2869C15.5928 42.4485 15.6524 42.6101 15.6524 42.7717C15.5836 42.7948 15.5286 42.8064 15.4874 42.8064C15.4094 42.8064 15.3452 42.7856 15.2948 42.744C15.2444 42.6979 15.1825 42.6263 15.1091 42.5293C15.0082 42.3954 14.912 42.2938 14.8203 42.2246C14.7286 42.1553 14.6002 42.1207 14.4351 42.1207C14.183 42.1207 13.9721 42.2384 13.8024 42.4739C13.6328 42.7048 13.5319 42.9772 13.4998 43.2912C13.4861 43.4344 13.4792 43.5752 13.4792 43.7137C13.4792 43.9446 13.4952 44.1593 13.5273 44.3579L13.7268 44.3787C14.1027 44.4249 14.4558 44.4502 14.7859 44.4549C14.8317 44.4549 14.8638 44.4664 14.8822 44.4895C14.9051 44.508 14.9165 44.5426 14.9165 44.5934C14.9165 44.7181 14.7767 44.7804 14.497 44.7804C14.254 44.7804 13.9491 44.7365 13.5823 44.6488C13.6328 44.8566 13.697 45.0482 13.7749 45.2237C13.8529 45.3945 13.9537 45.6 14.0775 45.8401C14.1646 46.011 14.2288 46.1449 14.2701 46.2419C14.3113 46.3342 14.332 46.4127 14.332 46.4774C14.332 46.5282 14.3159 46.5651 14.2838 46.5882C14.2517 46.6067 14.2059 46.6159 14.1463 46.6159C14.0225 46.6159 13.9056 46.4843 13.7955 46.2211C13.6901 45.9533 13.5686 45.5839 13.431 45.1129L13.3073 44.7042L13.2935 44.6211C13.1972 44.6211 12.9886 44.6257 12.6677 44.635C12.3376 44.6442 12.0602 44.6488 11.8355 44.6488C11.9089 44.8243 12.0464 45.1267 12.2481 45.5562C12.3719 45.8148 12.4591 46.011 12.5095 46.1449C12.5599 46.2742 12.5851 46.385 12.5851 46.4774C12.5851 46.5282 12.5691 46.5651 12.537 46.5882C12.5049 46.6067 12.4591 46.6159 12.3994 46.6159C12.3353 46.6159 12.2711 46.549 12.2069 46.415C12.1427 46.2765 12.0349 45.9971 11.8836 45.5769C11.6911 45.0505 11.5833 44.7596 11.5604 44.7042C11.4595 44.7135 11.3335 44.7412 11.1822 44.7873C11.1684 44.792 11.1203 44.8058 11.0377 44.8289C10.9598 44.8474 10.8887 44.8566 10.8245 44.8566C10.7512 44.8566 10.7144 44.8127 10.7144 44.725C10.7144 44.6096 10.7741 44.5334 10.8933 44.4964C11.0125 44.4549 11.1248 44.4318 11.2303 44.4272C11.3358 44.4179 11.4022 44.411 11.4297 44.4064C11.4206 44.2771 11.416 44.1616 11.416 44.0601C11.416 43.6214 11.4962 43.2404 11.6567 42.9172C11.8218 42.5894 12.1175 42.4254 12.5439 42.4254C12.8098 42.4254 13.0665 42.5155 13.3141 42.6956C13.4012 42.3816 13.5388 42.1438 13.7268 41.9821C13.9148 41.8159 14.1486 41.7328 14.4283 41.7328ZM11.7805 44.3718C11.8355 44.3764 11.9066 44.3787 11.9937 44.3787C12.0808 44.3741 12.1702 44.3718 12.2619 44.3718C12.7662 44.3579 13.0986 44.3533 13.2591 44.3579C13.2224 44.0624 13.2041 43.8038 13.2041 43.5821C13.2041 43.4482 13.211 43.3189 13.2247 43.1943C13.1193 43.0742 13.0161 42.9818 12.9152 42.9172C12.819 42.8479 12.6975 42.8133 12.5507 42.8133C12.2573 42.8133 12.051 42.9103 11.9318 43.1042C11.8126 43.2935 11.753 43.5521 11.753 43.88C11.753 44.0601 11.7621 44.224 11.7805 44.3718ZM17.549 46.609C17.2556 46.609 16.985 46.5513 16.7375 46.4358C16.4899 46.3204 16.2927 46.1565 16.146 45.944C15.9993 45.7316 15.9259 45.4869 15.9259 45.2098C15.9259 44.9005 15.9833 44.6119 16.0979 44.344C16.2125 44.0716 16.3798 43.8546 16.5999 43.693C16.8246 43.5267 17.0859 43.4436 17.3839 43.4436C17.6957 43.4436 17.9318 43.5452 18.0923 43.7484C18.2528 43.9469 18.3284 44.1986 18.3193 44.5034C18.3193 44.7758 18.2115 44.9836 17.996 45.1267C17.7851 45.2699 17.5146 45.3414 17.1845 45.3414C17.1341 45.3414 17.0584 45.3368 16.9575 45.3276C16.7925 45.3091 16.6756 45.2837 16.6068 45.2514C16.538 45.2191 16.5036 45.1544 16.5036 45.0575C16.5036 45.0251 16.5128 45.0021 16.5311 44.9882C16.5495 44.9697 16.5862 44.9605 16.6412 44.9605C16.7008 44.9605 16.8062 44.9743 16.9575 45.0021C17.1043 45.0298 17.2349 45.0436 17.3495 45.0436C17.7714 45.0436 17.9823 44.8589 17.9823 44.4895C17.9823 44.2679 17.941 44.0924 17.8585 43.9631C17.7805 43.8338 17.6407 43.7692 17.439 43.7692C17.2189 43.7692 17.0217 43.8292 16.8475 43.9492C16.6733 44.0647 16.538 44.2171 16.4417 44.4064C16.35 44.5957 16.3042 44.7966 16.3042 45.009C16.3042 45.3738 16.4051 45.6739 16.6068 45.9094C16.8085 46.1403 17.1203 46.2557 17.5421 46.2557C17.5925 46.2557 17.6774 46.2511 17.7966 46.2419C17.847 46.2373 17.9089 46.2234 17.9823 46.2003C18.0556 46.1772 18.1083 46.1611 18.1404 46.1518C18.3376 46.0826 18.482 46.0479 18.5737 46.0479C18.6425 46.0479 18.6952 46.0664 18.7319 46.1034C18.6173 46.2788 18.4453 46.4081 18.2161 46.4912C17.9914 46.5697 17.7691 46.609 17.549 46.609ZM20.6317 46.609C20.3382 46.609 20.0677 46.5513 19.8202 46.4358C19.5726 46.3204 19.3754 46.1565 19.2287 45.944C19.082 45.7316 19.0086 45.4869 19.0086 45.2098C19.0086 44.9005 19.0659 44.6119 19.1806 44.344C19.2952 44.0716 19.4625 43.8546 19.6826 43.693C19.9073 43.5267 20.1686 43.4436 20.4666 43.4436C20.7784 43.4436 21.0145 43.5452 21.175 43.7484C21.3355 43.9469 21.4111 44.1986 21.4019 44.5034C21.4019 44.7758 21.2942 44.9836 21.0787 45.1267C20.8678 45.2699 20.5973 45.3414 20.2672 45.3414C20.2167 45.3414 20.1411 45.3368 20.0402 45.3276C19.8752 45.3091 19.7583 45.2837 19.6895 45.2514C19.6207 45.2191 19.5863 45.1544 19.5863 45.0575C19.5863 45.0251 19.5955 45.0021 19.6138 44.9882C19.6322 44.9697 19.6689 44.9605 19.7239 44.9605C19.7835 44.9605 19.8889 44.9743 20.0402 45.0021C20.1869 45.0298 20.3176 45.0436 20.4322 45.0436C20.854 45.0436 21.065 44.8589 21.065 44.4895C21.065 44.2679 21.0237 44.0924 20.9412 43.9631C20.8632 43.8338 20.7234 43.7692 20.5216 43.7692C20.3016 43.7692 20.1044 43.8292 19.9302 43.9492C19.756 44.0647 19.6207 44.2171 19.5244 44.4064C19.4327 44.5957 19.3869 44.7966 19.3869 45.009C19.3869 45.3738 19.4878 45.6739 19.6895 45.9094C19.8912 46.1403 20.203 46.2557 20.6248 46.2557C20.6752 46.2557 20.7601 46.2511 20.8793 46.2419C20.9297 46.2373 20.9916 46.2234 21.065 46.2003C21.1383 46.1772 21.191 46.1611 21.2231 46.1518C21.4203 46.0826 21.5647 46.0479 21.6564 46.0479C21.7252 46.0479 21.7779 46.0664 21.8146 46.1034C21.7 46.2788 21.528 46.4081 21.2988 46.4912C21.0741 46.5697 20.8518 46.609 20.6317 46.609ZM24.2164 46.6159C24.088 46.6159 23.9986 46.549 23.9482 46.415C23.8978 46.2811 23.8565 46.101 23.8244 45.8748L23.8038 45.7016C23.735 45.3322 23.68 44.9651 23.6387 44.6003C23.5975 44.2309 23.5562 43.7853 23.5149 43.2635L23.4737 42.751C23.1986 42.7556 22.8066 42.744 22.2976 42.7163L22.1601 42.7094C22.0959 42.7048 22.0501 42.6748 22.0225 42.6194C21.9996 42.5593 21.9882 42.4785 21.9882 42.3769H22.4627C23.2605 42.3769 23.9803 42.407 24.6222 42.467C25.2641 42.527 25.585 42.6494 25.585 42.8341C25.585 42.8849 25.5758 42.9195 25.5575 42.938C25.5437 42.9565 25.5116 42.9657 25.4612 42.9657C25.2778 42.9518 24.9936 42.9126 24.6084 42.8479C24.5213 42.8341 24.4159 42.8179 24.2921 42.7995C24.1683 42.781 24.0284 42.7625 23.8725 42.744C23.8725 43.4136 23.9711 44.4433 24.1683 45.8332C24.1774 45.9025 24.2095 46.0018 24.2646 46.1311C24.2875 46.1865 24.3081 46.2465 24.3265 46.3111C24.3494 46.3712 24.3608 46.4266 24.3608 46.4774C24.3608 46.542 24.3517 46.5813 24.3333 46.5951C24.315 46.609 24.2921 46.6159 24.2646 46.6159C24.2416 46.6159 24.2256 46.6159 24.2164 46.6159ZM26.4945 46.6159C26.3891 46.6159 26.3043 46.4612 26.2401 46.1518C26.1759 45.8378 26.1346 45.5677 26.1163 45.3414C26.0979 45.1152 26.0727 44.7573 26.0406 44.2679C26.036 44.1894 26.0338 44.0878 26.0338 43.9631C26.0338 43.8061 26.0452 43.6976 26.0681 43.6375C26.0956 43.5775 26.1392 43.5475 26.1988 43.5475C26.2492 43.5475 26.2882 43.559 26.3157 43.5821C26.3478 43.6006 26.3753 43.6329 26.3982 43.6791L26.3914 43.9562C26.3914 44.2517 26.4051 44.5311 26.4326 44.7943C26.4647 45.0575 26.5129 45.4107 26.5771 45.854C26.6137 46.0479 26.639 46.2072 26.6527 46.3319C26.6619 46.3966 26.6503 46.4612 26.6183 46.5259C26.5862 46.5859 26.545 46.6159 26.4945 46.6159ZM26.3226 42.8064C26.2217 42.8064 26.1461 42.7671 26.0956 42.6886C26.0498 42.6101 26.0269 42.5132 26.0269 42.3977C26.0269 42.3469 26.0292 42.31 26.0338 42.2869C26.0292 42.213 26.0704 42.1761 26.1575 42.1761C26.2217 42.1761 26.2859 42.1922 26.3501 42.2246C26.4189 42.2523 26.4395 42.273 26.412 42.2869C26.4579 42.407 26.4808 42.5016 26.4808 42.5709C26.4808 42.6309 26.467 42.6794 26.4395 42.7163C26.412 42.7487 26.373 42.7787 26.3226 42.8064ZM31.7329 46.6159C31.6641 46.6159 31.6229 46.5974 31.6091 46.5605C31.5954 46.5189 31.5885 46.4566 31.5885 46.3735C31.5931 46.3412 31.5954 46.3042 31.5954 46.2627C31.5954 46.2165 31.5977 46.1819 31.6022 46.1588C31.6297 45.9371 31.6435 45.727 31.6435 45.5285C31.6435 45.0898 31.5701 44.7481 31.4234 44.5034C31.2767 44.254 31.0452 44.1293 30.7288 44.1293C30.5546 44.1293 30.3803 44.1732 30.2061 44.2609C30.0365 44.3487 29.8967 44.4572 29.7866 44.5865C29.6812 44.7158 29.6284 44.8335 29.6284 44.9397C29.6514 45.0736 29.6926 45.2376 29.7522 45.4315C29.7568 45.4546 29.7752 45.5262 29.8073 45.6462C29.8439 45.7663 29.8623 45.8748 29.8623 45.9718L29.8692 46.1034C29.8692 46.1772 29.8325 46.2142 29.7591 46.2142C29.6674 46.2142 29.5918 46.1541 29.5322 46.0341C29.4771 45.914 29.4152 45.727 29.3465 45.473C29.2777 45.2237 29.2112 45.0182 29.147 44.8566C29.0828 44.695 28.9957 44.5565 28.8857 44.441C28.7757 44.3256 28.6358 44.2679 28.4662 44.2679C28.2323 44.2679 28.049 44.3487 27.916 44.5103C27.7876 44.6719 27.7234 44.8705 27.7234 45.106C27.7234 45.263 27.7372 45.4707 27.7647 45.7293C27.7876 45.9233 27.7991 46.0895 27.7991 46.228C27.7991 46.3111 27.7899 46.3735 27.7716 46.415C27.7532 46.4566 27.7097 46.4774 27.6409 46.4774C27.5492 46.4774 27.485 46.4474 27.4483 46.3873C27.4117 46.3227 27.3933 46.2257 27.3933 46.0964C27.3933 45.8425 27.3796 45.5354 27.352 45.1752C27.3475 45.129 27.3383 45.0113 27.3245 44.822C27.3108 44.628 27.3085 44.4341 27.3177 44.2401L27.3245 44.0116C27.352 43.9839 27.3841 43.97 27.4208 43.97C27.4713 43.97 27.5125 44.0023 27.5446 44.067C27.5813 44.127 27.5996 44.2194 27.5996 44.344C27.6684 44.224 27.7693 44.1155 27.9022 44.0185C28.0352 43.9215 28.175 43.873 28.3218 43.873C28.5739 43.873 28.7825 43.9262 28.9476 44.0324C29.1172 44.1339 29.2708 44.3002 29.4084 44.5311C29.5367 44.2956 29.7293 44.0947 29.9861 43.9285C30.2474 43.7622 30.5156 43.6791 30.7907 43.6791C31.075 43.6791 31.3111 43.7876 31.4991 44.0046C31.6916 44.2217 31.8315 44.4826 31.9186 44.7873C32.0103 45.0921 32.0561 45.3738 32.0561 45.6324C32.0561 45.8632 32.0355 46.0849 31.9942 46.2973C31.9576 46.5097 31.8705 46.6159 31.7329 46.6159ZM34.2319 46.609C33.9384 46.609 33.6679 46.5513 33.4204 46.4358C33.1728 46.3204 32.9756 46.1565 32.8289 45.944C32.6822 45.7316 32.6088 45.4869 32.6088 45.2098C32.6088 44.9005 32.6661 44.6119 32.7808 44.344C32.8954 44.0716 33.0627 43.8546 33.2828 43.693C33.5075 43.5267 33.7688 43.4436 34.0668 43.4436C34.3786 43.4436 34.6147 43.5452 34.7752 43.7484C34.9357 43.9469 35.0113 44.1986 35.0021 44.5034C35.0021 44.7758 34.8944 44.9836 34.6789 45.1267C34.468 45.2699 34.1975 45.3414 33.8674 45.3414C33.8169 45.3414 33.7413 45.3368 33.6404 45.3276C33.4754 45.3091 33.3585 45.2837 33.2897 45.2514C33.2209 45.2191 33.1865 45.1544 33.1865 45.0575C33.1865 45.0251 33.1957 45.0021 33.214 44.9882C33.2324 44.9697 33.2691 44.9605 33.3241 44.9605C33.3837 44.9605 33.4891 44.9743 33.6404 45.0021C33.7871 45.0298 33.9178 45.0436 34.0324 45.0436C34.4542 45.0436 34.6652 44.8589 34.6652 44.4895C34.6652 44.2679 34.6239 44.0924 34.5414 43.9631C34.4634 43.8338 34.3236 43.7692 34.1218 43.7692C33.9018 43.7692 33.7046 43.8292 33.5304 43.9492C33.3562 44.0647 33.2209 44.2171 33.1246 44.4064C33.0329 44.5957 32.9871 44.7966 32.9871 45.009C32.9871 45.3738 33.088 45.6739 33.2897 45.9094C33.4914 46.1403 33.8032 46.2557 34.225 46.2557C34.2754 46.2557 34.3603 46.2511 34.4795 46.2419C34.5299 46.2373 34.5918 46.2234 34.6652 46.2003C34.7385 46.1772 34.7912 46.1611 34.8233 46.1518C35.0205 46.0826 35.1649 46.0479 35.2566 46.0479C35.3254 46.0479 35.3781 46.0664 35.4148 46.1034C35.3002 46.2788 35.1282 46.4081 34.899 46.4912C34.6743 46.5697 34.452 46.609 34.2319 46.609Z" fill="white"/>
</svg>
