<svg width="30" height="30" viewBox="0 0 30 30" fill="none" xmlns="http://www.w3.org/2000/svg">
<g clip-path="url(#clip0)">
<path d="M27.1886 12.8614L5.25488 0.323714C4.87674 0.107714 4.45574 0 4.03474 0C4.02617 0 4.01774 0.00114286 4.00931 0.00114286C3.95274 0.00171429 3.89631 0.00457143 3.84002 0.009C3.8146 0.011 3.78931 0.0137143 3.76388 0.0165714C3.71988 0.0214286 3.67602 0.0275714 3.63231 0.0348571C3.61645 0.0375714 3.60045 0.0384286 3.5846 0.0414286L3.58545 0.0425714C3.31217 0.093 3.04545 0.189286 2.7976 0.333143C2.03845 0.773571 1.57117 1.58486 1.57117 2.46243V27.5377C1.57117 28.4153 2.03845 29.2266 2.7976 29.667C3.04531 29.8109 3.31202 29.9073 3.58531 29.9577L3.5846 29.9587C3.59888 29.9614 3.61331 29.9623 3.62745 29.9646C3.67445 29.9726 3.7216 29.9791 3.76888 29.9841C3.7926 29.9867 3.81617 29.9893 3.83988 29.9911C3.89545 29.9956 3.95088 29.9981 4.0066 29.9989C4.01602 29.999 4.02531 30.0001 4.03474 30.0001C4.45574 30.0001 4.87674 29.8924 5.25488 29.6764L27.1886 17.1386C27.9555 16.7001 28.4287 15.8847 28.4287 15.0011C28.4287 15.0011 28.4287 15.0007 28.4287 15.0006C28.4287 15.0006 28.4287 15.0001 28.4287 15C28.4287 15 28.4287 14.9996 28.4287 14.9994C28.4287 14.9994 28.4287 14.999 28.4287 14.9989C28.4287 14.1154 27.9555 13.3 27.1886 12.8614ZM18.5146 10.3716L16.3337 13.2326L10.7852 5.95314L18.5146 10.3716ZM26.1252 15.2781L10.7852 24.0469L20.39 11.446L26.125 14.7241C26.2243 14.7809 26.286 14.8871 26.286 15.001C26.2859 15.1153 26.2242 15.2216 26.1252 15.2781Z" fill="white"/>
</g>
<defs>
<clipPath id="clip0">
<rect width="30" height="30" fill="white"/>
</clipPath>
</defs>
</svg>
